<?xml version="1.0" encoding="utf-8" ?>
<svg xmlns="http://www.w3.org/2000/svg" xmlns:xlink="http://www.w3.org/1999/xlink" width="1024" height="1024">
	<path fill="#00ABEE" d="M427.621 46.8996C430.285 47.0614 444.761 52.4613 448.483 53.6525L511.857 73.7102L729.21 142.386C753.865 150.438 778.577 158.318 803.343 166.024C817.215 170.473 831.057 175.403 845.126 179.185C838.38 183.361 830.957 186.602 823.828 190.062L788.388 207.161L711.84 244.93C694.51 253.425 676.929 261.427 659.841 270.411C668.739 296.467 669.113 324.633 668.579 351.911C673.879 356.7 678.49 362.027 680.371 369.084C682.747 377.995 678.746 385.037 674.255 392.38C673.238 394.043 673.319 395.119 673.466 397.034C673.484 397.267 673.507 397.499 673.527 397.731C678.024 397.345 682.487 397.432 686.991 397.555C692.315 401.619 697.14 406.442 702.12 410.926C707.387 415.668 712.817 420.169 717.925 425.091C722.323 423.122 727.045 421.909 731.739 420.885C736.365 424.338 740.522 428.607 744.753 432.526L762.266 448.492L833.223 513.558C869.369 545.968 905.099 578.839 940.407 612.16L968.887 638.59C974.377 643.59 980.981 648.578 985.684 654.297C985.333 663.373 985.515 672.508 985.496 681.592C919.335 681.34 857.192 700.697 798.211 729.671C780.984 738.133 764.482 748.199 747.186 756.406C748 759.352 748.951 762.274 747.778 765.24C746.027 766.766 700.725 784.844 694.868 786.58L692.149 780.021C647.302 788.148 598.06 806.702 558.21 828.628C549.659 833.333 541.009 838.241 533.007 843.847C529.963 845.981 523.565 851.905 520.452 852.711C519.182 853.04 517.758 852.463 517.006 851.417C515.374 849.146 515.229 846.535 513.174 844.23C508.991 839.542 503.322 835.584 498.472 831.567C485.461 820.791 472.442 810.439 458.865 800.376C435.862 783.226 413.085 765.776 390.539 748.03C379.044 739.124 366.514 730.641 355.663 721.017C347.387 713.678 341.961 703.206 335.764 694.247C327.022 681.609 315.861 672.485 303.25 663.999C291.361 656.348 282.216 644.211 272.61 633.919C264.938 625.699 256.71 617.597 249.787 608.745C255.43 606.209 261.365 604.277 266.889 601.495C263.731 597.816 259.699 594.639 256.056 591.448C247.993 584.388 239.638 577.645 231.683 570.467C243.77 566.267 255.96 562.841 268.159 559.043C256.943 546.203 246.933 534.785 236.821 521.002C247.77 515.628 261.144 513.232 272.967 510.189C289.453 505.946 305.937 501.639 322.481 497.633C369.04 486.359 411.019 486.925 456.223 503.313C470.138 508.358 483.872 514.509 496.526 522.216C514.973 464.201 552.682 425.528 611.343 407.616C617.74 405.663 624.205 403.615 630.719 402.1C633.915 401.356 641.311 401.182 643.698 399.388C643.42 396.937 634.594 390.667 632.033 385.68C629.384 380.52 629 374.123 630.821 368.635C633.683 360.011 640.43 354.855 648.237 351.07C648.009 326.596 647.476 302.122 641.446 278.277C631.034 284.16 620.209 289.239 609.432 294.404C609.416 305.462 609.341 316.52 609.207 327.577C609.131 334.534 609.463 341.828 608.406 348.712C605.521 367.495 594.722 387.12 581.902 400.938C548.441 437.004 485.387 449.89 438.143 451.414C388.249 453.023 327.628 444.324 289.881 408.662C257.339 377.916 260.87 351.077 259.585 311.046C249.358 306.354 237.983 302.949 227.412 299.026C204.832 290.545 182.194 282.218 159.5 274.044C141.306 267.448 122.991 261.15 104.852 254.407C80.4171 245.324 56.0996 235.819 31.1019 228.363C51.8963 219.521 72.3131 209.56 92.893 200.205L234.703 135.477L383.247 67.4973C398.001 60.5697 413.055 54.2133 427.621 46.8996Z"/>
	<path fill="#00ABEE" d="M428.291 58.2282C455.743 65.9263 482.872 75.5639 510.042 84.2312L638.172 124.606L726.444 152.56C747.888 159.002 769.222 165.802 790.439 172.958C799.032 175.768 807.78 178.119 816.268 181.239C805.063 186.888 794.06 192.944 782.792 198.47C775.065 202.259 767.143 205.639 759.39 209.375L700.907 238.205C685.386 245.781 669.72 253.009 654.297 260.795C651.376 256.874 648.088 253.3 644.812 249.678C618.127 225.27 572.784 215.854 537.717 211.897C522.135 210.138 506.459 209.518 490.85 208.074C482.765 207.325 474.762 206.007 466.707 205.026C467.073 199.548 465.689 195.518 462.055 191.273C455.817 183.988 445.969 181.353 436.742 180.822C426.067 180.207 414.27 182.392 406.019 189.654C402.271 192.954 399.583 197.229 399.255 202.298C398.87 208.25 401.592 213.827 405.509 218.156C412.519 225.9 422.876 229.098 433.061 229.433C443.791 229.787 450.627 226.74 459.544 221.186C478.452 226.128 498.443 227.329 517.858 228.931C544.078 231.094 570.167 233.978 595.306 242.162C605.877 245.603 617.415 250.404 626.161 257.425C630.175 260.7 633.547 264.574 636.905 268.499C624.669 275.62 611.027 280.983 598.274 287.128C577.736 297.023 557.455 307.412 536.875 317.254L469.72 349.92C458.188 355.539 446.716 361.454 434.962 366.587C418.939 359.434 402.126 353.59 385.748 347.277C353.915 334.811 321.942 322.703 289.836 310.956C213.499 282.305 136.962 254.19 60.2306 226.613C72.5239 222.185 84.5237 215.72 96.4547 210.343C124.284 197.79 152.016 185.024 179.65 172.046L340.743 98.5882C354.594 92.2734 368.532 86.0748 382.299 79.5853C397.574 72.3849 412.781 64.9142 428.291 58.2282Z"/>
	<path fill="white" d="M428.291 58.2282C455.743 65.9263 482.872 75.5639 510.042 84.2312L638.172 124.606L726.444 152.56C747.888 159.002 769.222 165.802 790.439 172.958C799.032 175.768 807.78 178.119 816.268 181.239C805.063 186.888 794.06 192.944 782.792 198.47C775.065 202.259 767.143 205.639 759.39 209.375L700.907 238.205C685.386 245.781 669.72 253.009 654.297 260.795C651.376 256.874 648.088 253.3 644.812 249.678C661.525 240.111 679.62 232.522 696.985 224.207C724.51 211.008 751.922 197.574 779.216 183.904C760.707 177.831 742.014 172.497 723.463 166.587L546.324 110.122L462.927 83.3186C451.979 79.9169 440.926 75.5286 429.742 73.0706C420.788 76.1305 412.046 81.1822 403.411 85.1224C377.888 96.768 352.704 109.149 327.157 120.736C264.889 148.51 202.936 176.986 141.311 206.158C127.463 212.759 113.248 218.536 99.5415 225.463L331.24 310.475L399.524 336.582C410.932 341.032 422.742 346.834 434.557 349.989C453.757 341.378 472.667 331.923 491.601 322.737L549.085 295.185L592.243 274.444C603.679 268.972 615.122 263.682 626.161 257.425C630.175 260.7 633.547 264.574 636.905 268.499C624.669 275.62 611.027 280.983 598.274 287.128C577.736 297.023 557.455 307.412 536.875 317.254L469.72 349.92C458.188 355.539 446.716 361.454 434.962 366.587C418.939 359.434 402.126 353.59 385.748 347.277C353.915 334.811 321.942 322.703 289.836 310.956C213.499 282.305 136.962 254.19 60.2306 226.613C72.5239 222.185 84.5237 215.72 96.4547 210.343C124.284 197.79 152.016 185.024 179.65 172.046L340.743 98.5882C354.594 92.2734 368.532 86.0748 382.299 79.5853C397.574 72.3849 412.781 64.9142 428.291 58.2282Z"/>
	<path fill="white" d="M379.79 498.237C410.781 497.986 439.837 505.353 468.274 517.345C475.517 520.399 483.254 523.56 489.876 527.808C496.915 532.323 502.96 539.026 508.942 544.824C517.335 552.917 525.683 561.055 533.989 569.238C554.841 589.714 576.246 609.687 596.908 630.351C611.514 645.028 626.305 659.52 641.278 673.822C652.4 684.435 663.5 695.352 676.027 704.32C668.735 701.689 661.217 699.323 653.582 697.941C612.56 690.511 562.324 699.442 522.791 711.25C508.156 715.979 494.142 721.617 479.965 727.554C470.413 731.553 460.718 735.378 451.798 740.685C439.636 727.477 426.787 714.941 414.449 701.902C389.464 675.606 364.799 649.009 340.457 622.117C333.82 614.894 327.489 607.396 320.833 600.196C307.58 586.1 294.254 572.074 280.853 558.12C270.424 547.155 260.287 535.431 248.722 525.655C260.999 521.81 273.639 518.945 286.078 515.661C316.784 507.554 347.904 499.26 379.79 498.237Z"/>
	<path fill="#00ABEE" d="M405.335 516.712C430.895 513.985 469.79 529.654 491.967 543.207C442.1 526.258 418.531 523.695 366.786 540.625C357.949 543.435 349.032 546.413 339.883 548.02C319.217 551.65 295.957 547.573 277.196 538.411C294.9 542.718 313.862 543.42 331.25 537.342C340.309 534.175 349.025 530.036 358.083 526.83C373.499 521.372 389.026 517.939 405.335 516.712Z"/>
	<path fill="#00ABEE" d="M450.301 559.228C474.753 558.974 505.878 567.872 526.044 582.391C494.804 571.579 465.924 565.413 432.946 573.673C420.055 576.902 407.608 581.688 394.962 585.732C391.57 586.949 388.013 587.989 384.533 588.93C362.112 594.991 335.567 592.361 315.368 580.621C335.503 585.608 353.734 586.083 373.455 578.886C382.165 575.707 390.575 571.809 399.343 568.76C416.034 562.956 432.592 559.744 450.301 559.228Z"/>
	<path fill="#00ABEE" d="M520.992 640.204C550.529 638.303 578.339 645.877 604.234 659.653C571.022 650.059 539.297 646.058 505.392 655.908C495.399 658.811 485.765 662.816 476.124 666.699C472.467 668.097 468.784 669.428 465.079 670.691C442.43 678.165 416.608 677.953 395.059 667.025C402.988 668.914 410.804 669.255 418.932 668.812C446.323 667.319 462.99 654.994 487.273 646.665C498.194 642.919 509.51 641.038 520.992 640.204Z"/>
	<path fill="#00ABEE" d="M487.751 599.707C514.57 598.41 541.936 607.423 565.109 620.456C556.522 618.089 548.194 615.12 539.458 613.255C499.875 604.805 471.474 614.033 435 626.971L434.578 627.114C408.752 635.803 380.862 635.714 356.237 623.494C394.43 633.174 422.317 613.932 457.245 604.254C467.287 601.471 477.384 600.269 487.751 599.707Z"/>
	<path fill="#00ABEE" d="M566.185 678.711C584.563 677.849 609.969 682.271 627.004 689.108C619.195 688.865 611.375 687.574 603.55 687.183C576.809 685.85 552.613 689.543 527.367 698.346C514.287 702.907 501.924 708.967 488.618 712.97C468.128 718.672 449.279 717.552 430.06 708.392C468.226 714.014 490.472 696.933 524.118 686.025C537.977 681.532 551.696 679.477 566.185 678.711Z"/>
	<path fill="white" d="M670.804 407.622C675.153 407.524 679.503 407.508 683.852 407.573C708.156 428.524 731.641 450.27 755.381 471.843L828.139 537.543C845.47 553.271 862.453 569.805 880.301 584.904C838.515 581.639 795.228 600.34 763.839 627.247C734.872 651.654 712.986 683.388 700.464 719.137C685.47 705.652 671.464 690.921 656.986 676.878L577.916 600.221L532.943 556.458C523.233 547.151 512.974 538.235 504.015 528.193C514.704 489.401 540.835 453.156 576.09 433.16C596.297 421.7 619.379 414.615 641.953 409.591C638.133 418.971 636.264 428.382 633.682 438.101C624.37 442.662 614.73 446.372 605.846 451.781C578.705 468.306 552.657 496.789 542.384 527.085C540.058 533.872 538.278 540.835 537.061 547.907C542.824 537.877 548.146 527.888 554.699 518.313C574.363 489.911 600.953 467 631.949 451.749C627.257 472.657 624.479 493.92 620.874 515.022C615.107 520.588 609.128 526.068 604.16 532.38C591.048 549.038 580.907 573.744 580.485 595.115C580.478 595.488 580.478 595.862 580.485 596.235C589.974 574.721 601.639 547.96 619.898 532.523C618.805 538.225 617.556 543.874 621.192 549.003C626.55 556.564 638.939 558.241 647.423 559.437C650.639 559.922 653.871 560.281 657.115 560.514C653.096 565.315 648.715 569.772 645.106 574.905C634.344 590.214 622.571 617.683 622.401 636.46C630.314 614.784 641.812 594.143 657.211 576.854C662.022 571.453 667.617 566.748 672.351 561.316C681.751 559.798 698.564 557.891 704.453 549.512C707.258 545.52 706.393 541.502 705.543 537.058C723.901 523.344 746.68 516.799 769.394 515.925L772.424 513.917C748.71 510.454 725.289 511.496 703.284 521.892C700.656 508.179 698.903 493.834 695.229 480.378C703.452 478.396 711.692 476.63 720.137 475.892C725.285 475.442 730.424 475.504 735.57 475.201C718.771 471.856 709.75 470.817 692.371 472.227C689.77 461.131 686.534 450.36 683.004 439.527C689.192 439.422 695.364 439.965 701.512 440.639C695.367 437.238 688.141 435.14 681.51 432.824C677.779 424.519 674.281 416.039 670.804 407.622Z"/>
	<path fill="#4E4B76" d="M772.424 513.917C774.818 514.333 777.208 514.766 779.596 515.217C776.199 515.451 772.786 515.625 769.394 515.925L772.424 513.917Z"/>
	<path fill="#00ABEE" d="M666.237 676.01C672.298 641.273 685.261 608.45 712.719 584.904C734.359 566.346 761.224 554.288 789.87 552.824C797.157 552.451 804.346 553 811.602 553.582L812.097 554.361L811.444 554.892C798.279 556.466 785.579 558.844 773.084 563.424C735.454 577.217 702.085 606.134 682.444 641.009C676.082 652.305 671.708 664.311 666.237 676.01Z"/>
	<path fill="#00ABEE" d="M811.602 553.582C814.084 553.918 816.556 554.208 818.987 554.831C816.463 554.928 813.968 555.048 811.444 554.892L812.097 554.361L811.602 553.582Z"/>
	<path fill="white" d="M869.83 594.218C879.83 593.913 889.699 595.103 899.628 596.106C896.698 618.853 900.603 634.506 909.011 655.383C890.819 658.461 872.522 661.501 854.688 666.303C827.827 673.536 792.078 688.828 767.899 702.387C750.563 712.109 734.442 724.121 716.988 733.554C714.422 731.913 712.1 730.24 709.814 728.226L710.172 727.525C710.596 726.684 711.024 725.849 711.505 725.04C713.625 721.472 716.485 718.308 718.792 714.849C749.711 668.498 792.809 636.319 847.024 622.308C853.997 620.76 861.657 619.053 868.775 618.671C873.619 618.411 878.687 619.06 883.483 618.523C884.721 618.384 885.565 618.293 886.5 617.39C887.095 616.207 887.754 614.545 887.501 613.187C887.33 612.269 887.056 611.743 886.376 611.137C883.117 608.232 872.974 609.444 868.614 609.878C818.184 614.895 765.914 646.92 734.351 685.918C728.245 693.463 723.142 701.819 717.963 710.012C715.499 713.91 713.165 718.175 710.21 721.708C710.096 721.845 709.978 721.978 709.862 722.113C720.615 696.7 735.485 671.49 754.117 651.02C774.48 628.648 802.029 609.464 831.096 600.579C843.712 596.723 856.678 594.846 869.83 594.218Z"/>
	<path fill="#00ABEE" d="M875.98 631.706C879.645 631.405 883.365 631.558 887.04 631.598C887.682 633.486 889.035 636.504 888.77 638.482C888.523 640.336 887.488 641.442 885.667 641.86C881.607 642.793 876.204 641.403 871.932 641.544C861.253 641.897 850.113 644.107 839.848 646.96C800.535 657.887 767.914 681.482 736.444 706.602L727.804 713.933C730.922 709.975 734.116 706.077 737.383 702.241C762.061 673.715 805.881 647.031 842.247 637.048C853.386 633.99 864.493 632.54 875.98 631.706Z"/>
	<path fill="#00ABEE" d="M883.048 648.208C887.765 647.785 895.572 646.901 900.086 648.126C901.003 648.375 901.933 648.968 902.38 649.824C903.146 651.289 903.28 653.309 902.71 654.857C898.097 656.93 882.454 657.077 876.483 657.718C869.468 658.472 862.341 659.404 855.413 660.74C832.805 665.101 810.825 674.042 789.856 683.303C784.414 685.701 779.154 688.493 774.119 691.657C782.252 684.09 792.37 677.819 802.086 672.533C827.71 658.593 853.874 650.394 883.048 648.208Z"/>
	<path fill="white" d="M273.677 567.057C276.377 567.259 286.086 579.571 288.199 581.976C325.378 624.134 363.064 665.842 401.249 707.09L436.141 744.944C442.403 751.721 448.487 758.726 455.053 765.21C467.248 758.061 479.622 751.222 492.164 744.701C516.271 731.867 539.163 720.343 565.559 712.612C603.03 701.637 658.358 700.035 692.986 718.959C682.866 716.015 673.825 712.649 663.23 711.168C597.719 703.132 506.396 749.882 452.16 783.991C418.489 749.591 386.016 714.145 353.35 678.795C342.515 667.07 332.092 655 321.052 643.455C298.137 619.56 274.475 596.391 250.102 573.984C257.701 571.041 265.814 569.15 273.677 567.057Z"/>
	<path fill="white" d="M640.955 718.211C661.245 716.252 680.818 721.204 699.159 729.505C696.507 734.236 693.628 738.809 690.74 743.398C674.867 744.103 659.049 747.157 643.617 750.747C604.51 759.502 566.957 774.14 532.242 794.162C524.104 798.858 515.902 803.792 508.143 809.085C502.778 812.745 497.637 816.872 492.035 820.159L491.421 820.516C488.855 818.877 486.522 816.979 484.151 815.076C523.278 782.947 568.395 758.908 616.885 744.354C630.905 740.538 645.018 737.646 659.32 735.094C648.882 734.78 638.402 735.887 628.074 737.305C570.38 745.229 519.865 773.563 472.536 805.985C469.164 803.581 465.861 801.153 462.66 798.526C471.109 790.93 481.339 784.683 490.679 778.23C535.546 747.228 585.716 722.048 640.955 718.211Z"/>
	<path fill="white" d="M271.541 315.741C296.725 324.551 323.151 333.587 347.308 344.831C347.569 372.4 347.581 399.971 347.345 427.541C327.89 422.112 309.209 412.145 294.979 397.663C270.881 373.139 271.376 347.636 271.541 315.741Z"/>
	<path fill="white" d="M596.887 301.026L597.434 301.967C597.704 308.781 597.364 315.608 597.434 322.428C597.513 330.181 598.214 338.471 597.271 346.157C596.861 349.502 595.848 352.88 594.753 356.058C586.011 381.408 568.349 402.805 544.12 414.5C542.618 412.18 543.858 335.787 543.985 326.328C561.54 317.705 579.291 309.56 596.887 301.026Z"/>
	<path fill="white" d="M971.643 661.712C972.614 661.624 973.558 661.659 974.531 661.681C976.645 663.695 975.81 669.048 975.905 671.931C908.18 672.765 835.516 697.735 776.289 729.561C765.322 735.454 754.77 742.075 744.162 748.583L743.274 748.407C741.504 746.865 740.376 744.763 739.131 742.796C751.097 733.716 765.152 725.928 778.176 718.464C842.964 681.338 897.339 666.321 971.643 661.712Z"/>
	<path fill="white" d="M465.591 209.333C489.808 213.596 513.933 214.314 538.279 217.078C567.53 220.398 607.582 228.411 632.182 245.529C648.763 257.068 655.817 272.242 659.221 291.764C660.63 299.845 665.206 346.093 661.909 350.777L660.38 350.768C658.432 350.585 656.448 350.548 654.492 350.445C654.499 342.718 654.577 334.969 654.259 327.248C653.494 308.656 652.956 285.426 643.573 268.951C621.418 230.054 543.025 226.018 503.033 222.231C493.826 221.36 484.695 220.078 475.534 218.846C472.389 218.423 465.01 218.395 462.857 216.416C462.655 214.546 464.859 211.163 465.591 209.333Z"/>
	<path fill="white" d="M686.337 761.711L687.503 761.557C689.897 763.374 690.288 768.331 690.917 771.184C682.285 772.89 673.623 774.203 665.06 776.274C629.131 784.964 594.377 798.979 561.553 815.843C554.695 819.43 547.966 823.26 541.381 827.326C537.429 829.755 525.404 838.423 522.002 839.361C521.269 839.563 521.472 839.427 520.679 838.906C518.52 836.721 516.214 834.678 513.952 832.601C522.392 825.019 532.835 819.234 542.623 813.577C585.505 788.792 637.059 768.314 686.337 761.711Z"/>
	<path fill="white" d="M429.942 186.189C438.047 185.349 447.841 186.614 454.5 191.65C457.605 193.998 460.008 197.333 460.395 201.292C460.694 204.354 459.613 207.197 457.583 209.474C452.317 215.379 442.651 217.297 435.125 217.738C426.986 217.994 417.692 216.554 410.945 211.671C408.251 209.72 405.877 206.992 405.501 203.567C405.187 200.711 406.296 198.019 408.066 195.823C413.106 189.573 422.331 187.151 429.942 186.189Z"/>
	<path fill="white" d="M909.898 598.628C911.729 599.645 960.476 643.726 961.804 645.656L961.625 646.308L959.623 646.457C945.342 647.245 931.061 647.719 916.838 649.317C911.17 631.065 907.573 618.194 909.898 598.628Z"/>
	<path fill="white" d="M659.684 429.871C664.435 463.043 667.398 496.445 668.561 529.935C668.792 535.809 670.024 543.525 668.899 549.17L668.073 549.607L658.515 549.513C658.485 520.088 657.51 490.809 658.162 461.355C658.388 451.173 657.837 439.867 659.684 429.871Z"/>
	<path fill="white" d="M650.947 357.065C651.506 357.017 652.063 356.974 652.624 356.972C655.052 356.96 657.177 358.509 658.819 360.176C662.028 363.436 663.735 368.376 663.493 372.917C663.037 381.458 656.736 385.431 650.985 390.485C651.554 391.154 652.004 391.8 652.448 392.558C651.596 393.375 652.116 393.087 650.842 393.333C648.644 392.663 646.315 391.814 644.302 390.687C640.368 388.487 637.46 384.825 636.209 380.494C634.842 375.654 635.812 370.342 638.349 366.051C641.291 361.077 645.524 358.524 650.947 357.065Z"/>
	<path fill="white" d="M651.898 435.091L652.549 435.027L651.284 504.496C651.05 519.237 651.175 534.004 650.375 548.727C647.19 548.426 644.078 547.682 640.955 547.011C640.676 531.725 642.74 515.832 644.13 500.586C646.112 478.861 647.78 456.528 651.898 435.091Z"/>
	<path fill="white" d="M666.565 433.843C671.002 445.771 687.843 541.609 685.261 547.692L676.108 549.089C674.556 527.019 673.491 504.829 671.446 482.809C669.939 466.584 667.117 450.111 666.565 433.843Z"/>
	<path fill="white" d="M731.589 746.475C734.909 748.58 737.117 755.814 738.518 759.412C726.753 764.707 714.728 769.779 702.631 774.266C701.677 774.619 701.534 774.64 700.46 774.509C697.69 771.545 697.311 765.571 696.569 761.647C707.893 755.897 720.19 752.219 731.589 746.475Z"/>
	<path fill="white" d="M725.66 430.368C728.922 431.336 732.436 435.23 735.009 437.497C750.754 451.611 766.374 465.863 781.868 480.252L846.982 539.324L878.226 567.809C885.399 574.255 894.645 581.043 900.335 588.773C898.084 587.711 895.794 587.233 893.989 585.404C885.873 577.181 876.854 569.681 868.368 561.825C846.812 541.887 825.088 522.131 803.198 502.56L751.964 455.944C745.522 450.107 739.277 444.053 732.661 438.415C730.342 436.439 725.926 433.541 725.66 430.368Z"/>
	<path fill="white" d="M645.24 434.866C646.016 439.781 643.186 452.046 642.481 457.529C641.254 467.589 640.083 477.655 638.968 487.727C636.896 506.207 635.543 524.74 633.607 543.228L629.439 540.869L627.342 539.24C626.204 534.707 638.845 461.241 640.905 451.193C642.042 445.644 643.36 440.22 645.24 434.866Z"/>
	<path fill="white" d="M674.134 439.411C678.391 443.54 697.56 529.161 699.137 540.839L698.375 541.805L693.167 543.999C692.573 535.911 691.071 527.792 689.831 519.782C688.014 507.397 685.918 495.055 683.544 482.765C680.597 468.275 676.943 453.932 674.134 439.411Z"/>
	<path fill="white" d="M649.035 398.378C652.147 398.722 655.046 399.481 658.236 399.596C660.604 399.682 663.604 399.045 665.833 399.802C666.039 401.408 665.468 402.186 664.83 403.652C664.055 403.838 663.29 404.021 662.502 404.145C658.876 404.711 654.058 404.57 651.02 402.242C649.604 401.156 649.237 400.09 649.035 398.378Z"/>
	<path fill="#1900F8" d="M626.888 545.002C629.478 545.575 632.055 547.922 634.522 549.043C640.512 551.764 649.022 552.364 655.507 552.802C662.552 553.22 669.616 553.192 676.657 552.718C680.321 552.488 685.457 550.66 688.891 551.343C679.899 555.048 665.696 554.476 655.852 554.013C646.657 553.58 633.46 552.241 626.888 545.002Z"/>
	<path fill="#4E4B76" d="M651.898 435.091C651.882 433.114 651.687 431.144 652.447 429.283L652.891 429.59C653.085 431.524 652.881 433.117 652.549 435.027L651.898 435.091Z"/>
	<path fill="#00ABEE" d="M178.555 441.018L178.765 441.224C178.975 443.08 177.018 446.441 176.301 448.278C174.142 453.81 172.4 459.35 171.445 465.221C168.416 483.848 174.162 502.437 181.564 519.358C200.323 562.24 230.434 596.973 261.66 631.182L277.214 648.084C279.725 650.763 282.554 653.302 284.91 656.108C286.898 658.476 287.558 661.735 289.402 664.191C290.077 665.089 289.659 664.798 290.87 664.98C291.933 664.424 292.677 664.017 293.89 663.878C309.781 677.459 329.062 691.111 336.995 711.204C346.337 714.792 343.42 720.691 346.426 723.57C348.423 725.483 352.065 726.717 354.429 728.352C359.371 731.771 364.056 735.844 368.77 739.583L492.088 835.593C504.56 845.361 511.361 862.034 513.101 877.469C515.383 897.715 509.1 917.175 496.432 932.989C481.359 951.805 454.906 969.307 430.668 971.835C420.564 972.889 412.008 970.815 404.084 964.321C393.197 953.847 383.815 941.38 373.727 930.112C355.138 909.598 336.897 888.773 319.011 867.644C302.773 848.606 286.82 829.274 270.025 810.72C269.568 810.696 269.111 810.668 268.654 810.634C261.526 810.091 254.377 807.777 249.301 802.513C243.186 796.171 243.596 788.226 239.139 781.218C231.373 769.009 221.036 757.634 211.663 746.587C210.067 746.871 208.587 747.06 206.971 746.794C202.345 746.03 195.662 741.556 193.655 737.164C192.452 734.53 192.296 731.134 190.6 728.78C190.466 728.595 190.322 728.418 190.187 728.235C186.215 722.83 181.316 717.983 176.762 713.062C168.162 703.811 159.497 694.619 150.769 685.489C135.71 669.517 121.19 653.051 106.003 637.191C87.6184 617.991 67.1434 597.861 50.1347 577.706L50.2681 577.155C62.1648 528.665 88.9945 501.431 128.463 473.538C144.756 462.088 161.465 451.241 178.555 441.018Z"/>
	<path fill="white" d="M162.055 463.964C162.992 464.82 161.888 476.346 162.006 478.617C162.929 496.474 169.426 514.1 177.243 530.037C193.568 563.318 215.567 592.166 240.181 619.707C248.949 629.517 258.559 638.668 266.902 648.837C255.165 649.787 242.461 655.43 232.576 661.623C213.974 673.278 197.522 691.747 192.614 713.525L182.892 702.861C155.595 674.259 128.5 645.465 101.611 616.48C90.2753 604.354 77.8322 592.695 67.2761 579.916C70.474 567.547 73.8582 554.831 79.489 543.31C96.3691 508.774 130.263 483.784 162.055 463.964Z"/>
	<path fill="#00ABEE" d="M78.6244 575.881C78.8056 575.943 78.9907 575.993 79.1681 576.065C85.7271 578.708 92.5979 584.969 98.3246 589.231C123.897 608.102 148.456 628.309 171.899 649.767C179.562 656.813 187.708 663.834 194.626 671.608C196.884 674.146 198.561 676.599 200.043 679.654L197.017 682.34L194.017 685.956C176.847 671.491 160.957 655.163 144.822 639.561L78.6244 575.881Z"/>
	<path fill="white" d="M345.366 732.569C347.109 732.547 347.853 733.164 349.221 734.228C373.964 753.475 397.968 773.729 422.657 793.054C442.575 808.645 463.36 823.294 482.833 839.426C469.583 844.012 456.467 850.183 445.085 858.451C420.136 876.574 401.408 900.923 396.555 931.885C396.333 935.787 396.535 939.671 396.697 943.572C392.454 938.342 387.626 933.463 383.095 928.474C376.813 921.492 370.582 914.464 364.403 907.391C341.371 881.301 318.591 854.99 296.064 828.463C288.27 819.242 279.522 810.466 272.365 800.771C271.722 799.9 271.01 799.038 270.671 797.99C268.332 790.766 272.65 780.025 276.331 773.86C286.119 757.471 306.021 744.533 323.712 738.331C330.754 735.862 338.146 734.428 345.366 732.569Z"/>
	<path fill="#00ABEE" d="M282.719 792.332C282.896 792.325 283.072 792.31 283.249 792.312C284.94 792.328 286.024 792.906 287.388 793.836C292.064 797.026 296.389 800.941 300.715 804.595C311.773 813.933 322.359 823.795 333.112 833.481L373.543 870.195C382.085 877.965 390.776 885.582 399.013 893.679C395.846 901.168 393.675 908.583 392.143 916.566L390.961 925.143C384.248 915.138 376.873 905.763 369.494 896.254C353.761 875.98 337.362 856.459 320.529 837.09L298.776 811.902C293.554 805.901 286.306 799.348 282.719 792.332Z"/>
	<path fill="white" d="M286.139 670.003C298.158 673.415 320.111 699.149 327.18 709.231C321.463 709.969 315.393 711.674 309.96 713.542C284.862 722.174 261.207 740.993 249.502 764.988C248.063 768.268 247.238 771.504 246.601 775.016C239.255 765.92 220.869 746.525 216.424 737.332C216.454 729.517 217.878 722.102 221.288 715.036C230.077 696.822 246.837 683.321 265.593 676.391C272.324 673.903 279.363 672.387 286.139 670.003Z"/>
	<path fill="white" d="M489.856 846.121L490.519 846.108C495.98 850.517 500.309 860.27 502.339 866.856C507.58 883.861 504.843 902.316 496.434 917.856C485.824 937.465 460.938 954.8 440.007 961.063C430.986 963.762 422.045 965.095 413.471 960.287C410.388 958.558 406.714 956.026 405.77 952.433C406.533 948.334 409.675 948.402 413.156 947.682C433.052 943.567 452.451 934.471 467.325 920.388C476.616 911.591 483.187 899.896 483.462 886.899L483.472 886.18C482.197 877.534 479.307 869.781 473.627 863.052C460.721 864.824 448.237 871.607 436.661 877.305C438.628 879.701 440.65 882.153 442.336 884.757C446.542 891.252 448.373 898.007 446.677 905.724C442.833 923.208 420.606 937.955 406.241 946.926C406.093 946.28 405.965 945.63 405.858 944.977C403.087 927.677 410.239 908.636 420.12 894.687C425.343 887.314 432.03 879.715 438.836 873.724C451.616 862.475 472.909 849.005 489.856 846.121Z"/>
	<path fill="white" d="M271.29 657.577L272.985 657.562C274.596 658.418 275.446 660.045 276.428 661.522C259.071 665.877 242.44 672.738 229.036 684.857C214.102 698.361 206.628 714.797 205.703 734.761C205.374 735.429 205.626 735.055 204.763 735.737C203.427 734.845 202.557 732.914 202.15 731.398C199.348 720.951 204.62 707.442 210.036 698.582C224.082 675.605 245.871 663.775 271.29 657.577Z"/>
	<path fill="white" d="M329.765 719.178C330.536 719.087 331.512 718.901 332.278 719.009C333.551 719.187 334.128 719.724 334.866 720.705L334.474 721.942L334.441 721.908C329.7 724.366 323.489 725.07 318.391 726.974C301.472 733.293 285.484 743.95 273.518 757.48C261.973 770.534 257.686 779.883 258.693 797.259L258.749 797.614L258.295 797.478C256.503 794.641 255.372 791.594 254.873 788.267C253.291 777.713 259.723 765.906 265.833 757.8C280.289 738.62 305.865 722.491 329.765 719.178Z"/>
</svg>
